# xmcd
# 
# Track frame offsets:
#     150
#     20994
#     35108
#     53070
#     68472
#     86095
# 
# Disc length: 1370
# 
# Revision: 0
# Processed by: cddbd v1.5.2PL0 Copyright (c) Steve Scherf et al.
# Submitted via: fre:ac v1.0.17
# 
DISCID=4d055806
DTITLE=Son Little - Things I Forgot
DYEAR=2014
DGENRE=Blues
TTITLE0=The River
TTITLE1=Your Love Will Blow Me Away When My Heart Aches
TTITLE2=Cross My Heart
TTITLE3=Joy
TTITLE4=Alice
TTITLE5=Cross My Heart (RJD2 remix)
EXTD=
EXTT0=
EXTT1=
EXTT2=
EXTT3=
EXTT4=
EXTT5=
PLAYORDER=
